<svg xmlns="http://www.w3.org/2000/svg" viewBox="0 0 64 64" role="img" aria-label="Udbhav Ram mark">
  <rect width="64" height="64" fill="#0b0b0a"/>
  <path d="M8 8h48v48H8z" fill="none" stroke="#f3efe2" stroke-width="2"/>
  <path d="M8 42h48" stroke="#d6b14a" stroke-width="2"/>
  <path d="M42 8v48" stroke="#6f7d4f" stroke-width="2"/>
  <path d="M17 18v18c0 7 4 11 11 11s11-4 11-11V18h-7v18c0 3-1 5-4 5s-4-2-4-5V18h-7z" fill="#f3efe2"/>
  <path d="M45 18h-4v21h7v-7h2l4 7h8l-5-8c3-2 4-4 4-7 0-4-3-6-8-6h-8zm3 6h4c2 0 3 1 3 2s-1 2-3 2h-4v-4z" fill="#d6b14a" transform="translate(-2)"/>
  <path d="M17 52h30" stroke="#f3efe2" stroke-width="3"/>
</svg>
