<?xml version="1.0" encoding="UTF-8"?>
<svg id="Layer_1" data-name="Layer 1" xmlns="http://www.w3.org/2000/svg" xmlns:xlink="http://www.w3.org/1999/xlink" viewBox="0 0 993.63 498.5">
  <defs>
    <style>
      .cls-1 {
        fill: #0072d3;
      }

      .cls-2 {
        fill: #f23d4e;
      }

      .cls-3 {
        fill: url(#New_Gradient_Swatch_6);
      }
    </style>
    <linearGradient id="New_Gradient_Swatch_6" data-name="New Gradient Swatch 6" x1="651.82" y1="137.68" x2="336.89" y2="683.16" gradientUnits="userSpaceOnUse">
      <stop offset="0" stop-color="#eef2f9"/>
      <stop offset=".1" stop-color="#b9cce9"/>
      <stop offset=".14" stop-color="#b5c9e7"/>
      <stop offset=".18" stop-color="#a9c1e4"/>
      <stop offset=".22" stop-color="#95b5df"/>
      <stop offset=".22" stop-color="#95b5df"/>
      <stop offset=".35" stop-color="#c1d5ec"/>
      <stop offset=".48" stop-color="#e7f0f8"/>
      <stop offset=".55" stop-color="#f6fbfd"/>
      <stop offset=".6" stop-color="#eef5fa"/>
      <stop offset=".68" stop-color="#d8e5f3"/>
      <stop offset=".77" stop-color="#b5cce8"/>
      <stop offset=".82" stop-color="#a1bde2"/>
      <stop offset=".92" stop-color="#b9cce9"/>
      <stop offset=".95" stop-color="#bcceea"/>
      <stop offset=".97" stop-color="#c8d7ee"/>
      <stop offset=".99" stop-color="#dce5f4"/>
      <stop offset="1" stop-color="#e1e9f6"/>
    </linearGradient>
  </defs>
  <g id="Hor_Trap" data-name="Hor Trap">
    <path class="cls-1" d="M119.3,245.58c1.96,3.42,5.5,5.63,9.43,5.89h26.14c5.89,0,2.95-5.89,2.95-5.89-4.06-10.64-7.4-21.54-9.99-32.63-.77-3.42-3.72-5.91-7.22-6.1h-34.49c-6.48-.24-3.74,6.16-3.74,6.16,4.39,11.46,10.07,22.39,16.92,32.57Z"/>
    <path class="cls-1" d="M103.44,200.69h36.14c2.31.31,4.43-1.31,4.74-3.62.09-.66.02-1.33-.2-1.95-.21-1.36-.38-2.74-.59-4.1-4.18-.9-8.28-2.17-12.23-3.8-4.57-1.88-9.29-3.35-14.12-4.39-12.35-2.59-17.39-4.27-19.25-8.02h-2.42c-.9-.07-1.79-.23-2.65-.47.83,7.04,2.11,14.02,3.83,20.9.58,3.24,3.46,5.56,6.75,5.45Z"/>
    <path class="cls-1" d="M154.88,53.73h-26.14c-3.93.27-7.47,2.48-9.43,5.89-.94,1.39-1.8,2.8-2.68,4.21.73.7,1.32,1.51,1.77,2.42l1.15,2.27c.77,0,1.12,0,1.97.15,3.83.38,7.93-7.87,7.93-7.87,0,0,8.67,10.52,5.16,18.24-1.74,4.57-6,7.68-10.88,7.96-.46.04-.91.12-1.36.24-.97.76-2.02,1.42-3.12,1.97-.11,3.23-1.14,6.37-2.95,9.05h24.14c3.57-.11,6.61-2.62,7.4-6.1,2.65-11.11,6.06-22.04,10.2-32.69,0,0,2.86-5.72-3.15-5.75Z"/>
    <path class="cls-1" d="M288.81,195.06c1.77-6.99,3.07-14.09,3.89-21.25-1.45-5.96-4.51-11.4-8.84-15.74l-1.62-1.41c-4.91-1.04-10-.71-14.74.94-5.39,2.21-7.99,3.63-23.58,15.83-.18,2.42-.41,4.83-.65,7.22,6.32.7,12.31,3.23,17.21,7.28,3.15,2.53,9.87,7.9,25.5,11.55,1.5-1.03,2.52-2.62,2.83-4.42Z"/>
    <path class="cls-1" d="M282.06,104.43h-36.14c-2.33-.29-4.44,1.37-4.73,3.69-.08.63-.01,1.27.19,1.88,1.6,10.09,2.58,20.27,2.95,30.48,3.33-1.57,6.96-2.41,10.64-2.45,2.7.48,5.48-.06,7.81-1.5.87-1.55,2.17-2.82,3.74-3.65l.29-1c1.48-4.29,5.19-7.41,9.67-8.13.77-.13,1.55-.19,2.33-.21,3.77.18,7.34,1.73,10.05,4.36l3.83,2.95c-.82-7.03-2.1-14-3.83-20.87-.52-3.31-3.46-5.7-6.81-5.54Z"/>
    <path class="cls-1" d="M230.63,251.39h26.26c3.93-.29,7.47-2.49,9.46-5.89,6.25-9.32,11.5-19.27,15.68-29.68-9.79-1.25-19.41-3.6-28.68-7.01l-.97.27c-4.47,1.16-9.06,1.84-13.68,2h0c-.29.58-.53,1.18-.71,1.8-2.63,11.12-6.04,22.04-10.2,32.69,0,0-3.18,5.81,2.83,5.84Z"/>
    <path class="cls-1" d="M212.68,53.73h-39.73c-4.1.28-7.67,2.91-9.14,6.75l-9.43,30.95c-.96,2.66.42,5.6,3.08,6.57.62.22,1.27.33,1.93.3h66.76c2.85.08,5.22-2.16,5.3-5.01.02-.63-.08-1.26-.29-1.86l-9.46-30.95c-1.45-3.8-4.96-6.43-9.02-6.75Z"/>
    <path class="cls-1" d="M158.18,200.69h10.76c-1.15-1.53-2.09-2.95-2.68-3.65l-2.95-4.19c-4.39-.18-8.84-.44-12.97-.83l.15,1.62c.57,3.88,3.78,6.82,7.69,7.04Z"/>
    <path class="cls-1" d="M279.41,98.27c6.45.24,3.71-6.16,3.71-6.16-4.38-11.41-10.05-22.29-16.89-32.42-1.99-3.4-5.53-5.61-9.46-5.89h-26.14c-5.89,0-2.95,5.75-2.95,5.75,4.16,10.64,7.57,21.57,10.2,32.69.8,3.4,3.74,5.86,7.22,6.04h34.31Z"/>
    <path class="cls-1" d="M299.42,104.43c-5.31,0-3.98,5.54-3.98,5.54,2.15,8.71,3.61,17.58,4.36,26.53,3.33,2.56,6.48,5.01,8.02,6.13,2.44,1.95,4.71,4.11,6.78,6.45h24.82c3.42.15,6.31-2.49,6.46-5.91.02-.4,0-.8-.06-1.19-.56-10.43-2.29-20.76-5.16-30.8-1.2-4.18-5.12-6.99-9.46-6.78l-31.77.03Z"/>
    <path class="cls-1" d="M139.58,104.43h-29.62c-.47.29-.88.59-1.39.85-3.53,1.94-7.45,3.07-11.47,3.3-.19.47-.33.97-.41,1.47-1.56,6.21-2.76,12.51-3.6,18.86.15.5.21.83.21.83.57,2.53,1.79,4.86,3.54,6.78.56.68,1.21,1.39,1.86,2.12.89-1.45,2.07-2.72,3.45-3.71-.96-1.13-1.62-2.49-1.92-3.95-.46-2.35.05-4.78,1.41-6.75l4.69-6.72c1.87-2.66,4.91-4.25,8.16-4.24,1.75,0,3.47.47,4.98,1.36.35-.47.76-.91,1.21-1.3,2.86-2.35,6.5-3.54,10.2-3.33,3.78.05,7.51.79,11.02,2.18.61.25,1.2.53,1.77.85l.44-2.95c.82-2.18-.28-4.61-2.46-5.43-.66-.25-1.38-.33-2.08-.23Z"/>
    <path class="cls-1" d="M206.13,191.64c.65,1.62,1.21,3.27,1.68,4.95,2.84-1.93,6.2-2.96,9.64-2.95l6.84.35c6.96.56,7.87-3.51,7.87-3.51.86-2.34,2.16-4.51,3.83-6.37l.47-5.01c-9.12,6.25-19.46,10.51-30.33,12.53Z"/>
    <path class="cls-1" d="M235.08,111.47c-.55-3.87-3.76-6.82-7.66-7.04h-69.24c-3.93.2-7.18,3.15-7.75,7.04l-.65,6.87c2.01,2.47,3.51,5.31,4.39,8.37,1.95-.91,4.07-1.38,6.22-1.39h0c2.44.03,4.85.49,7.13,1.36,3.15,1.15,46.86,19.87,52.82,22.43h11.23c1.03,0,2.04-.27,2.95-.77l.5-.59c.71-.91,1.48-1.75,2.33-2.53.44-1,.64-2.09.59-3.18l-2.86-30.56Z"/>
    <path class="cls-1" d="M298.39,53.73h-21.13c-8.84,0-4.6,5.54-4.6,5.54,7.25,10.03,12.87,21.14,16.65,32.92.72,3.88,4.31,6.54,8.22,6.1h30.09c8.02,0,5.07-7.43,5.07-7.43-4.48-11.83-11.07-22.74-19.45-32.22-5.1-5.45-14.86-4.92-14.86-4.92Z"/>
    <path class="cls-1" d="M172.94,251.39h39.73c4.08-.26,7.64-2.86,9.14-6.66l9.11-29.86c-6.97,4.6-14.69,7.94-22.81,9.87-2.52.54-5.09.82-7.66.83-7.6.29-14.88-3.09-19.57-9.08,0,0-3.63-4.77-7.25-9.64h-14.24c-2.81-.13-5.2,2.04-5.33,4.85-.03.7.08,1.39.32,2.04l9.43,31.04c1.52,3.78,5.07,6.35,9.14,6.6Z"/>
    <path class="cls-1" d="M208.37,2.42c19.9,9.16,37.4,22.81,51.14,39.88,3.34,3.79,8.1,6.03,13.15,6.19h23.58s8.84,0,3.57-6.04C277.89,21.19,250.15,6.94,220.1,1.53c-8.11-1.41-20.31-2.95-11.73.88Z"/>
    <path class="cls-1" d="M209.93,256.63h-34.37c-3.71,0-5.36,2.95-3.65,6.54,4.24,10.78,9.16,21.27,14.74,31.42,2.71,4.63,3.3,5.22,5.89,5.22s3.3-.59,5.89-5.22c5.56-10.16,10.49-20.65,14.74-31.42,2.15-3.6.5-6.54-3.24-6.54Z"/>
    <path class="cls-1" d="M165.22,262.79c-1.29-3.53-4.56-5.95-8.31-6.16h-22.61c-7.78,0-1.15,6.37-1.15,6.37,12.76,14.74,28.47,28.8,45.95,36.84,6.6,2.95,7.4,2.95,4.72-1.39-3.83-5.89-14.38-26.5-18.6-35.66Z"/>
    <path class="cls-1" d="M87.14,251.39h21.13c8.84,0,4.6-5.54,4.6-5.54-7.3-10.01-12.96-21.13-16.77-32.92-.72-3.86-4.29-6.52-8.19-6.1h-30.15c-8.02,0-5.07,7.43-5.07,7.43,4.49,11.82,11.08,22.74,19.45,32.22,5.22,5.6,15,4.92,15,4.92Z"/>
    <path class="cls-1" d="M177.13,302.7c-19.89-9.17-37.4-22.82-51.14-39.88-3.33-3.79-8.08-6.03-13.12-6.19h-23.58s-8.84,0-3.54,5.89c21.86,21.27,49.57,35.54,79.58,40.97,8.16,1.62,20.37,3.09,11.79-.8Z"/>
    <path class="cls-1" d="M339.42,156.01h-18.89c5.55,6.59,10.34,13.79,14.27,21.46l1.03,2.33c.8,1.85-.05,4-1.9,4.81-.13.06-.26.1-.4.15l-2.42.74c-2.49,1.04-4.75,2.55-6.66,4.45-2.63,2.57-6.14,4.01-9.81,4.04-2.66-.07-5.27-.73-7.63-1.95-2.03-.28-4.08-.45-6.13-.5h-4.63c-.27,1.21-.5,2.45-.8,3.63,0,0-1.33,5.54,3.98,5.54h31.77c4.34.21,8.26-2.6,9.46-6.78,2.87-10.04,4.6-20.37,5.16-30.8.51-3.38-1.82-6.53-5.2-7.04-.4-.06-.8-.08-1.19-.06Z"/>
    <path class="cls-1" d="M327.63,206.82h-5.28c.79,1.25,1.21,2.7,1.21,4.19,0,7.07-8.28,7.07-14.32,7.07-7.08-.07-14.16-.53-21.19-1.39-3.7,10.41-8.88,20.23-15.39,29.15,0,0-4.19,5.54,4.6,5.54h21.13s9.76.53,14.97-4.92c8.38-9.47,14.97-20.39,19.45-32.22,0,0,2.95-7.4-5.19-7.43Z"/>
    <path class="cls-1" d="M296.15,256.63h-23.58c-5.05.16-9.81,2.4-13.15,6.19-13.73,17.07-31.24,30.72-51.14,39.88-8.58,3.89,3.63,2.3,11.79.94,30.01-5.45,57.71-19.71,79.58-40.97,5.28-6.13-3.51-6.04-3.51-6.04Z"/>
    <path class="cls-1" d="M252.35,263s6.63-6.4-1.15-6.37h-22.61c-3.75.21-7.02,2.63-8.31,6.16-4.21,9.17-14.74,29.77-18.57,35.66-2.68,4.24-1.89,4.27,4.69,1.39,17.51-8.05,33.19-22.25,45.95-36.84Z"/>
    <path class="cls-1" d="M175.57,48.49h34.37c3.74,0,5.39-2.95,3.68-6.54-4.25-10.77-9.17-21.26-14.74-31.42-2.71-4.63-3.33-5.22-5.89-5.22s-3.27.59-5.89,5.22c-5.58,10.15-10.5,20.64-14.74,31.42-2.15,3.6-.5,6.54,3.21,6.54Z"/>
    <path class="cls-1" d="M133.09,42.12s-6.63,6.4,1.15,6.37h22.61c3.75-.21,7.02-2.63,8.31-6.16,4.21-9.17,14.74-29.77,18.6-35.66,2.68-4.24,1.89-4.27-4.72-1.39-17.42,8.05-33.13,22.25-45.95,36.84Z"/>
    <path class="cls-1" d="M220.28,42.33c1.29,3.53,4.56,5.95,8.31,6.16h22.61c7.78,0,1.15-6.37,1.15-6.37-12.76-14.59-28.44-28.8-45.95-36.84-6.57-2.95-7.37-2.95-4.69,1.39,3.8,5.89,14.35,26.5,18.57,35.66Z"/>
    <path class="cls-1" d="M46.09,149.11h30.62c-.41-4.03-1.76-7.91-3.95-11.32-4.27-7.93-4.24-12.38-6.6-16.06l-1.62-2.95c-1.98-4.03-2.08-8.73-.29-12.85.24-.56.47-1.03.68-1.5h-10.61c-4.34-.21-8.25,2.6-9.43,6.78-2.88,10.04-4.62,20.37-5.19,30.8-.51,3.38,1.82,6.53,5.2,7.04.4.06.8.08,1.19.06Z"/>
    <path class="cls-1" d="M86.11,200.69c5.28,0,3.95-5.54,3.95-5.54-1.97-8.07-3.35-16.28-4.13-24.55-4.61-3.64-7.62-8.92-8.4-14.74h-31.45c-3.42-.15-6.31,2.49-6.46,5.91-.02.4,0,.8.06,1.19.56,10.48,2.3,20.86,5.19,30.95,1.19,4.18,5.09,6.99,9.43,6.78h31.8Z"/>
    <path class="cls-1" d="M57.76,98.3h10.64c.09-.3.16-.6.21-.91.42-2.63,1.19-5.2,2.27-7.63l-.71-2.06c-1.69-5.97-.12-12.39,4.13-16.92,3.2-3.66,7.87-5.69,12.73-5.54,3.74,0,8.08,2.39,12.08,2.12.64,0,1.28-.17,1.83-.5,2.4-3.15,6.02-5.14,9.96-5.48h.5c.47-.74.94-1.41,1.47-2.15,0,0,4.19-5.54-4.6-5.54h-21.13s-9.79-.53-15,4.92c-8.37,9.48-14.96,20.39-19.45,32.22,0,0-2.95,7.46,5.07,7.49Z"/>
    <path class="cls-1" d="M89.35,48.49h23.58c5.04-.16,9.79-2.4,13.12-6.19,13.72-17.05,31.21-30.7,51.08-39.88,8.58-3.83-3.63-2.3-11.61-.88-30.01,5.43-57.72,19.7-79.58,40.97-5.36,6.19,3.42,5.98,3.42,5.98Z"/>
    <path class="cls-2" d="M69.75,115.89c-1.11-2.44-1.11-5.25,0-7.69,1.83-4.39,3.77-4.69,4.72-9.73.94-5.04,2.59-11.97,12.64-14.09,10.05-2.12,17.01,12.59,26.03,2.95,0,0,1.56,7.75-7.4,12.56-5.56,3.21-12.34,3.51-18.16.8-2.65-1-7.49-5.16-9.05.21-1.56,5.36,8.37,3.45,6.22,12.2-4.97-3.09-11.48-1.87-15,2.8ZM101.2,82c2.64-1.9,4.69-4.52,5.89-7.55,2.33-5.42,6.04-5.63,6.04-5.63-1.47-2.95-4.77-1.12-7.75,2.09s-9.61,2.06-12.08,1.36c-2.48-.71-9.64-2.95-14.47,2.48-2.82,2.93-3.94,7.11-2.95,11.05,6.96-6.14,16.87-7.63,25.32-3.8ZM118.62,82.59c3.63-2.95,7.72.41,10.52-5.89,1.1-2.21,1.1-4.81,0-7.01-3.8,5.72-6.31,5.28-12.06,4.6s-6.1,1.71-8.84,5.42c-1.2,1.78-2.78,3.27-4.63,4.36,3.15,2.95,11.38,1.44,15-1.47ZM76.89,115.95c-3.92,1.77-5.66,6.37-3.9,10.29,1.48,3.28,5.02,5.12,8.55,4.45,3.92-1.77,5.66-6.37,3.9-10.29-1.48-3.28-5.02-5.12-8.55-4.45ZM83.25,154.5c.55,7.08,5.78,12.91,12.76,14.21,5.42.47,8.49-2.06,8.34-8.84-.15-6.78-7.69-14.27-12.06-19.34-2.5-2.78-4.2-6.2-4.89-9.87-2.31,3.34-6.66,4.57-10.38,2.95,4.69,4.83,5.31,12.64,6.22,20.9ZM109.78,138.44c-3.84-.02-6.97,3.08-6.99,6.93-.02,3.84,3.08,6.97,6.93,6.99,3.84.02,6.97-3.08,6.99-6.93,0,0,0-.02,0-.03,0-3.84-3.11-6.96-6.96-6.96-.02,0-.04,0-.06,0h.09ZM127.47,140.92l4.13-7.07c1.04-1.89.4-4.27-1.44-5.39l-13.68-8.61c-1.78-1.11-4.11-.64-5.33,1.06l-4.57,6.72c-.87,1.34-.52,3.13.8,4.04l15.92,10.26c1.37.88,3.19.49,4.08-.87.03-.04.05-.09.08-.13h.03ZM118.36,151.85c-1.04.99-2.38,1.62-3.8,1.8,10.26,3.45,4.6-.21,14.24-.65,9.64-.44,15.5-2.95,19.22-13.71,3.2-8.27-.38-17.62-8.28-21.63-5.51-2.18-12.26-2.48-15,0-1.03.63-1.35,1.97-.73,3,.28.46.72.8,1.23.95,0,0,5.42,3.36,8.84,5.89,1.9,1.31,2.64,3.75,1.8,5.89,0,0-3.92,7.07-6.22,10.32s-7.66,2.45-7.66,2.45c0,0-2.65,4.36-3.63,5.69ZM118.36,176.85c14.41,2.95,18.8,7.9,32.19,9.17,13.38,1.27,32.92,1.33,32.92,1.33-.62-5.23-.95-10.5-1-15.77-14.47-2.39-19.95-3.18-24.58-8.84-4.63-5.66.88-14.06.88-14.06-2.26-2.21-5.27-3.5-8.43-3.6-4.17,7.09-11.73,11.49-19.95,11.61-2.14-.57-4.43-.04-6.1,1.41-2.03,1.39-4.36,1.09-9.81-1.06-5.45-2.15-5.89,1.33-5.89,1.33-.53,12.08-3.57,11.17-4.95,12.5-1.39,1.33.85,3.09,14.74,6.04v-.06ZM200.27,154.8c5.48,4.23,12.6,5.71,19.31,4.01.87-1.08.69-2.66-.39-3.52-.29-.24-.63-.4-1-.49,0,0-49.58-21.31-52.67-22.46-3.58-1.71-7.83-1.23-10.94,1.24-1.94,2.12-2.86,4.99-2.51,7.84,8.37,1.59,10.49,5.75,10.49,5.75,16.71-1.21,33.84,4.69,37.7,7.63ZM185.85,168.74c-.29,2.27,1.21,22.61,1.21,22.61,2.54,1.65,5.67,2.12,8.58,1.27,2.48-6.16,5.66-28.24,4.27-32.42-1.39-4.19-3.6-5.01-14.74-7.46-11.14-2.45-19.13-2.95-21.1-2.36-3.07,1.28-4.72,4.63-3.86,7.84.94,4.36,7.07,6.4,7.07,6.4,6.11,1.73,12.31,3.1,18.57,4.13ZM192.4,206.62c2.75-.17,4.83-2.53,4.66-5.28-.05-.82-.31-1.62-.74-2.32-1.7-2.99-5.26-4.39-8.55-3.36-2.62.77-3.18,4.13-3.18,4.13-1.39,5.81,3.98,7.31,7.81,6.84ZM203.83,161.28c.07,8.44-.92,16.86-2.95,25.05,13.37-1.5,26.03-6.8,36.49-15.27,18.3-14.41,21.34-16.62,28.21-19.07,4.53-1.73,9.42-2.33,14.24-1.77,3.24.21,5.89,1.77,7.4-.65s-7.04-9.43-12.03-10.96c-4.98-1.53-6.48-.77-7.4,1.24-.91,2-6.72,4.42-11.79,4.16-6.22-.12-12.15,2.61-16.09,7.43-4.16,5.22-18.98,14.41-36.08,9.84ZM291.73,148.61c1.06,3.3-3.98,4.98-3.98,4.98,11.97,10.46,13.12,31.98,13.12,31.98,2.69-.03,5.38.22,8.02.77,3.55,2.43,8.3,2.11,11.5-.77,2.51-2.55,5.52-4.56,8.84-5.89-3.54-8.28-18.72-27.68-25.02-32.42-6.31-4.75-15.03-11.79-17.68-13.82-2.65-2.03-4.98-4.72-8.84-4.01-2.27.34-4.19,1.87-5.01,4.01,9.11,3.68,18.04,11.91,19.07,15.18ZM184.79,212.07c1.74,1.89,6.84,9.93,22.02,6.84,15.18-3.09,25.61-14,30.92-13.74,4.4-.09,8.77-.69,13.03-1.8-3.6-7.63-15.62-8.67-15.62-8.67-2.77,4.27-8.11,4.66-16.86,4.1-8.75-.56-11.5,5.28-11.5,5.28,0,0-2.74,0-3.8-4.75-.44-2.45-1.76-4.66-3.71-6.22-1.56.97-2.04,3.03-1.06,4.59.07.12.15.23.24.33,1.49,2.26,1.74,5.12.65,7.6-1.09,3.21-7.78,6.16-13.44,2.65-7.01-4.33-2.12-14.74-2.12-14.74h-12.44s12.11,16.59,13.71,18.51ZM254.62,202.99c21.04,8.84,62.96,10.61,62.96,8.02,0-2.03-2.51-1.95-2.51-1.95-37.99-1.44-51.7-11.2-58.18-16.48-4.36-3.33-9.39-5.66-14.74-6.84-3.68.44-5.13,5.01-5.13,5.01,12.14.71,17.6,12.23,17.6,12.23Z"/>
    <path d="M622.69,53.73l67.79,197.48h-188.34l38.02-117.9h49.19l-22.99,71.03h58.12l-50.87-150.61h49.07Z"/>
    <path d="M951.75,57.83c3.53,3.54,3.52,9.27-.02,12.8-3.54,3.53-9.27,3.52-12.8-.02-3.52-3.53-3.52-9.24,0-12.77,3.48-3.54,9.17-3.59,12.71-.11.04.04.07.07.11.11ZM952.78,56.8c-4.12-4.11-10.79-4.1-14.9.01-4.11,4.12-4.1,10.79.01,14.9,4.09,4.11,10.73,4.13,14.84.05.02-.02.03-.03.05-.05,4.12-4.1,4.13-10.76.03-14.88-.01-.01-.02-.02-.03-.03ZM946.88,63.75c-.62.18-1.27.26-1.92.24h-1.86v-4.19h1.74c.85-.06,1.7.1,2.48.44.55.38.84,1.02.77,1.68.05.81-.44,1.55-1.21,1.83ZM940.99,69.97h2.03v-4.54h1.62c.77-.05,1.55.07,2.27.35.8.64,1.21,1.64,1.09,2.65v1.3h1.92c-.02-.2-.02-.39,0-.59v-1.71c-.01-.65-.24-1.29-.65-1.8-.46-.64-1.18-1.05-1.97-1.12.59-.09,1.16-.28,1.68-.56.77-.5,1.2-1.39,1.12-2.3.1-1.27-.63-2.46-1.8-2.95-1.02-.33-2.09-.47-3.15-.41h-4.04l-.12,11.67Z"/>
    <path d="M791.23,53.73h-87.95v46.95h61.48v.21c28.52-.47,52.01,22.26,52.49,50.78,0,.35,0,.69,0,1.04,0,29.21-24.14,51.49-53.32,51.49h-13.68v-70.92h-46.98v117.9h87.95c45.13-4.1,77.67-50.37,77.67-98.59s-35.96-94.76-77.67-98.86Z"/>
    <path d="M528.44,116.04c0-34.31-28.56-61.16-62.57-62.31h-73.21v46.95h66.85c8.4.14,15.16,6.95,15.24,15.36.07,8.96-6.76,16.46-15.68,17.24h-66.41v117.9h46.98v-71.89h26.53c34.13-1.89,62.28-28.94,62.28-63.25Z"/>
    <rect x="880.65" y="53.73" width="46.92" height="197.57"/>
  </g>
  <g>
    <polygon points="993.63 498.5 4.92 498.5 57.03 420.42 4.92 342.04 993.63 342.04 941.53 420.63 993.63 498.5"/>
    <polygon class="cls-3" points="988.71 488.65 0 488.65 52.11 410.57 0 332.19 988.71 332.19 936.6 410.79 988.71 488.65"/>
    <g>
      <path d="M248.26,400.71c12.46-3.41,27.16,5.41,27.16,24.57,0,15.75-11.29,27.4-26.57,27.4s-26.57-11.52-26.57-28.45c0-9.64,3.29-19.05,10.93-31.39l13.87-22.46h19.75l-18.58,30.34ZM249.08,413.76c-5.53,0-8.94,4.7-8.94,12.23s3.41,11.64,9.05,11.64,9.05-4.58,9.05-11.87-3.64-11.99-9.17-11.99Z"/>
      <path d="M318.33,452.68c-18.58,0-27.63-16.93-27.63-41.15,0-27.16,11.29-41.15,27.4-41.15,17.99,0,27.04,17.17,27.04,40.8s-7.99,41.51-26.81,41.51ZM317.98,385.43c-8.35,0-9.41,11.17-9.41,26.92s2.23,25.28,9.52,25.28c7.88,0,9.17-11.05,9.17-27.75s-2-24.46-9.29-24.46Z"/>
      <path d="M406.52,414.12l-31.63-42.68h24.22l17.4,25.16,17.52-25.16h24.1l-31.63,42.68v37.51h-19.99v-37.51Z"/>
      <path d="M526.56,451.62h-59.14v-80.19h58.32v14.7h-38.33v16.81h36.56v14.7h-36.56v19.28h39.15v14.7Z"/>
      <path d="M625.68,451.62h-21.52l-6.59-15.87h-35.86l-6,15.87h-21.17l32.34-80.19h23.16l35.63,80.19ZM578.76,390.6l-11.76,31.16h24.7l-12.93-31.16Z"/>
      <path d="M670.83,371.43c16.46,0,26.22,11.05,26.22,23.05,0,8.82-4.59,15.4-13.76,19.64,8.23,4.12,10.7,13.99,21.98,37.51h-21.98c-8.58-17.17-11.76-32.57-22.58-32.57h-5.77v32.57h-19.99v-80.19h35.87ZM654.95,404.36h10.58c5.53,0,10.93-2.35,10.93-9.17,0-6-3.88-9.05-11.41-9.05h-10.11v18.23Z"/>
      <path d="M769.24,392.25c-11.64-5.17-18.58-7.17-25.4-7.17-7.17,0-11.76,2.59-11.76,6.59,0,12.11,40.8,8.7,40.8,36.69,0,15.4-12.93,24.34-30.81,24.34-13.99,0-20.93-3.64-28.92-7.76v-17.28c11.52,7.64,18.57,10.35,27.39,10.35,7.65,0,11.76-2.7,11.76-7.41,0-13.17-40.8-8.35-40.8-37.16,0-13.87,12-23.04,30.57-23.04,8.94,0,17.05,1.88,27.16,6.23v15.64Z"/>
    </g>
  </g>
</svg>